<?xml version="1.0" encoding="utf-8"?>
<!-- Generator: Adobe Illustrator 16.0.0, SVG Export Plug-In . SVG Version: 6.00 Build 0)  -->
<!DOCTYPE svg PUBLIC "-//W3C//DTD SVG 1.1//EN" "http://www.w3.org/Graphics/SVG/1.1/DTD/svg11.dtd">
<svg version="1.1" id="Layer_1" xmlns="http://www.w3.org/2000/svg" xmlns:xlink="http://www.w3.org/1999/xlink" x="0px" y="0px"
	 width="269.223px" height="57.27px" viewBox="0 0 269.223 57.27" enable-background="new 0 0 269.223 57.27" xml:space="preserve">
<path fill-rule="evenodd" clip-rule="evenodd" fill="#060E9F" d="M141.215,3.772c0,0.706,0.196,1.362,0.64,1.952l25.854,37.026
	c0.59,0.853,0.918,1.821,0.918,2.854c0,1.329-0.458,2.51-1.344,3.511c-0.903,1.017-2.1,1.46-3.429,1.51l11.336,6.069
	c0.672,0.394,1.377,0.574,2.149,0.574c1.247,0,2.296-0.427,3.149-1.313c0.869-0.902,1.296-1.969,1.296-3.215
	c0-0.87-0.18-1.739-0.688-2.478c-0.115-0.099-0.214-0.246-0.279-0.36c-0.262-0.345-0.508-0.689-0.755-1.034
	c-0.968-1.361-1.919-2.739-2.887-4.118c-3.822-5.495-7.645-10.991-11.467-16.486l-0.148-0.214l15.602-22.344
	c0.443-0.573,0.623-1.229,0.623-1.936c-0.049-0.902-0.394-1.656-1.05-2.28c-0.64-0.623-1.411-0.936-2.313-0.936
	c-1.149,0-2.051,0.443-2.723,1.396l-14.19,20.293L147.301,1.952c-0.673-0.952-1.559-1.477-2.724-1.477
	c-0.902,0-1.673,0.328-2.313,0.984C141.625,2.1,141.264,2.854,141.215,3.772 M157.439,13.533l4.068,5.89l12.468-17.931l-12.37,6.775
	c-0.426,0.23-0.853,0.542-1.115,0.968L157.439,13.533z M136.096,12.041c0.197,0.36,0.509,0.771,0.738,1.1
	c0.706,1.017,1.411,2.033,2.117,3.034c2.723,3.905,5.446,7.792,8.169,11.681l0.148,0.196l-10.844,15.651
	c-0.345,0.541-0.641,1.181-0.641,1.82c0,0.952,0.345,1.756,1.018,2.428c0.639,0.657,1.411,1.018,2.346,1.018
	c1.165,0,2.083-0.443,2.707-1.46l0.017-0.017l9.465-13.551l9.531,13.551c0.657,0.984,1.559,1.477,2.724,1.477
	c0.935,0,1.722-0.328,2.395-0.984c0.657-0.656,0.968-1.443,0.968-2.379c0-0.688-0.263-1.329-0.624-1.887L140.477,6.677
	c-0.607-0.854-0.87-1.805-0.87-2.806l-3.445,4.15c-0.476,0.624-0.689,1.313-0.689,2.101c0,0.655,0.165,1.263,0.542,1.804
	l0.082,0.099V12.041z M136.95,50.084l3.822,5.726c0.639,0.984,1.542,1.46,2.723,1.46c1.165,0,2.083-0.443,2.707-1.443l0.017-0.033
	l9.252-13.206l-4.134-5.823l-8.104,11.696c-1.017,1.362-2.379,2.1-4.085,2.1C138.344,50.56,137.605,50.396,136.95,50.084"/>
<path fill="#00A887" d="M33.499,19.702c3.527,0,6.48,2.952,6.48,6.611v15.207c0,1.854,1.591,3.396,3.461,3.396
	c1.854,0,3.396-1.542,3.396-3.396V26.313c0-7.448-5.971-13.485-13.337-13.485c-4.052,0-7.71,1.673-10.072,4.43
	c-2.445-2.757-6.038-4.43-10.073-4.43c-2.445,0-4.823,0.705-6.874,1.936c-0.509-1.23-1.723-1.936-3.084-1.936
	C1.542,12.828,0,14.305,0,16.306v9.942v0.065v15.207c0,1.723,1.214,3.003,2.756,3.396c0.197-0.065,0.394,0,0.64,0
	c1.361,0,2.641-0.902,3.215-2.051v-0.328c0.131-0.131,0.131-0.263,0.197-0.378v-0.196c0-0.132,0.065-0.328,0.065-0.443V26.313
	c0-3.659,2.937-6.611,6.48-6.611c3.593,0,6.545,2.887,6.595,6.414v0.197v15.207c0,1.854,1.673,3.396,3.478,3.396
	c1.853,0,3.395-1.542,3.395-3.396V26.313v-0.197C26.953,22.589,29.841,19.702,33.499,19.702"/>
<path fill="#00A887" d="M80.812,16.307c0-1.937-1.542-3.479-3.396-3.479c-1.673,0-2.953,1.23-3.347,2.822
	c-2.428-1.723-5.315-2.822-8.531-2.822c-4.364,0-8.137,1.87-10.909,4.823c-2.756,2.887-4.364,6.857-4.364,11.287
	c0,4.363,1.608,8.333,4.364,11.286c2.772,2.888,6.545,4.692,10.909,4.692c3.216,0,6.103-1.034,8.531-2.757
	c0.394,1.543,1.673,2.757,3.347,2.757c1.854,0,3.396-1.542,3.396-3.396V28.938V16.307z M71.51,35.549
	c-1.542,1.608-3.724,2.494-5.972,2.494c-2.313,0-4.495-0.886-5.955-2.494c-1.542-1.673-2.444-3.985-2.444-6.61
	c0-2.69,0.902-5.004,2.444-6.611c1.46-1.723,3.642-2.625,5.955-2.625c2.248,0,4.429,0.902,5.972,2.625
	c1.542,1.607,2.51,3.921,2.51,6.611C74.02,31.563,73.052,33.876,71.51,35.549"/>
<path fill="#00A887" d="M100.612,12.894c-3.216-0.065-5.972,1.1-8.087,2.511c-0.459,0.312-0.968,0.836-1.346,1.279V16.24
	c0-1.87-1.608-3.347-3.527-3.347c-1.87,0-3.412,1.477-3.412,3.347v25.28c0,1.854,1.542,3.396,3.412,3.396
	c1.919,0,3.527-1.542,3.527-3.396V29.315c0.312-0.887,1.083-3.33,2.625-5.381c0.771-1.214,1.739-2.313,2.953-3.084
	c1.083-0.837,2.379-1.214,3.855-1.214c1.919,0,3.396-1.608,3.396-3.396C104.008,14.37,102.531,12.894,100.612,12.894"/>
<path fill="#00A887" d="M206.179,16.307c0-1.937-1.542-3.479-3.412-3.479c-1.657,0-2.953,1.23-3.33,2.822
	c-2.445-1.723-5.332-2.822-8.531-2.822c-4.363,0-8.153,1.87-10.909,4.823c-2.756,2.887-4.363,6.857-4.363,11.287
	c0,4.363,1.607,8.333,4.363,11.286c2.756,2.888,6.546,4.692,10.909,4.692c3.199,0,6.086-1.034,8.531-2.757
	c0.377,1.543,1.673,2.757,3.33,2.757c1.87,0,3.412-1.542,3.412-3.396V28.938V16.307z M196.877,35.549
	c-1.542,1.608-3.724,2.494-5.972,2.494c-2.313,0-4.495-0.886-5.971-2.494c-1.542-1.673-2.444-3.985-2.444-6.61
	c0-2.69,0.902-5.004,2.444-6.611c1.477-1.723,3.659-2.625,5.971-2.625c2.248,0,4.43,0.902,5.972,2.625
	c1.525,1.607,2.494,3.921,2.494,6.611C199.371,31.563,198.402,33.876,196.877,35.549"/>
<path fill="#00A887" d="M110.964,44.917c2.001,0,3.593-1.608,3.593-3.527v-5.644l3.527-3.544l9.433,11.435
	c0.64,0.82,1.674,1.28,2.707,1.28c0.771,0,1.591-0.263,2.231-0.837c1.542-1.214,1.739-3.462,0.524-5.004l-9.892-11.877l8.301-8.284
	c1.378-1.378,1.411-3.593,0-5.004c-1.346-1.345-3.658-1.345-5.004,0l-11.828,11.812v-9.302c0-1.92-1.591-3.527-3.593-3.527
	c-1.985,0-3.527,1.607-3.527,3.527V41.39C107.437,43.309,108.979,44.917,110.964,44.917"/>
<path fill="#00A887" d="M240.793,28.938L240.793,28.938v-0.065V3.461c0-1.854-1.542-3.461-3.478-3.461
	c-1.985,0-3.527,1.607-3.527,3.461v12.074c-2.362-1.673-5.446-2.707-8.596-2.707c-8.662,0-15.585,7.316-15.585,16.109
	c0,8.662,6.923,15.979,15.585,15.979c3.215,0,6.299-1.1,8.728-2.757c0.328,1.543,1.673,2.757,3.396,2.757
	c1.936,0,3.478-1.608,3.478-3.462V28.938z M231.229,22.458c1.608,1.607,2.559,3.921,2.559,6.479c0,2.444-0.951,4.742-2.559,6.35
	c-1.607,1.673-3.658,2.641-6.037,2.641c-2.313,0-4.43-0.968-6.021-2.641c-1.608-1.607-2.576-3.905-2.576-6.35
	c0-2.559,0.968-4.872,2.576-6.479c1.591-1.673,3.708-2.624,6.021-2.624C227.571,19.834,229.622,20.785,231.229,22.458"/>
<path fill="#00A887" d="M245.419,40.487L245.419,40.487c2.576,2.051,6.415,4.364,11.418,4.43c3.149,0,6.037-0.968,8.35-2.576
	c2.313-1.656,4.035-4.298,4.035-7.432c0-1.477-0.443-2.952-1.214-4.232c-1.099-1.805-2.821-3.019-4.561-3.789
	c-1.854-0.902-3.839-1.477-5.972-1.871h-0.049l-0.066-0.048c-2.182-0.395-3.855-0.969-4.691-1.542
	c-0.443-0.263-0.64-0.525-0.706-0.64c-0.131-0.197-0.131-0.264-0.131-0.526c0-0.311,0.197-0.901,1.034-1.476
	c0.836-0.64,2.248-1.148,3.855-1.148c2.05,0,3.839,1.018,5.89,2.378c1.607,1.083,3.724,0.641,4.757-0.901
	c0.951-1.608,0.508-3.725-1.034-4.758c-2.051-1.411-5.2-3.527-9.613-3.527c-2.953,0-5.66,0.837-7.907,2.379
	c-2.116,1.608-3.773,4.102-3.773,7.054c0,1.478,0.377,2.888,1.083,4.052c1.165,1.724,2.69,2.888,4.429,3.708
	c1.673,0.771,3.593,1.296,5.578,1.674h0.065c2.313,0.459,4.233,1.165,5.135,1.804c0.508,0.313,0.771,0.575,0.836,0.771
	c0.131,0.181,0.197,0.312,0.197,0.64c0,0.509-0.263,1.149-1.165,1.92c-1.017,0.64-2.625,1.214-4.363,1.214
	c-2.494,0.065-5.381-1.411-7.054-2.821c-1.411-1.214-3.659-1.018-4.807,0.524C243.812,37.157,244.009,39.339,245.419,40.487"/>
</svg>
